<svg version="1.2" xmlns="http://www.w3.org/2000/svg" viewBox="0 0 473 476" width="473" height="476">
	<title>logo-svg</title>
	<style>
		.s0 { fill: #87c54a } 
		.s1 { fill: #15a7cb } 
		.s2 { fill: #fefefe } 
	</style>
	<path id="Layer" class="s0" d="m233 2.9c65.2-1.3 124.3 26 171 70.1 0.1-1.6 0.1-1.6 0.3-3.3 2.2-22.2 9.7-39.2 27.1-53.6 12.7-9.2 25-11.9 40.6-13.1 0 155.4 0 310.9 0 471-22.1 0-44.2 0-67 0-0.3-23.1-0.7-46.2-1-70-4 4-7.9 7.9-12 12-4.5 3.9-9.2 7.4-14 11q-0.8 0.6-1.6 1.3c-21.2 16.1-45.2 27.7-70.4 35.7-1.1 0.4-1.1 0.4-2.3 0.7-60.3 18.8-123.9 9.5-179.4-19-7.1-3.7-13.8-8-20.3-12.7-0.8-0.6-0.8-0.6-1.7-1.2-3.5-2.5-6.9-5.1-10.3-7.8q-1.3-1.1-2.7-2.1c-10.2-8.2-20-16.8-28.3-26.9q-1.2-1.4-2.4-2.8c-40.8-46.6-61.1-107.9-57.1-169.6 4.6-61.8 33.6-120.1 80.3-161.1q4.1-3.3 8.2-6.5 1.4-1.1 2.8-2.3c40.1-32.1 89.5-47.7 140.2-49.8z"/>
	<path id="Layer" class="s1" d="m900 3c0.3 17.2 0.7 34.3 1 52 3.3-3 6.6-5.9 10-9 2.7-2.1 5.3-4.1 8.1-6q1.1-0.8 2.2-1.5c7.3-5 14.9-9.4 22.7-13.5q1-0.5 1.9-1c30.5-15.9 64.5-21.4 98.5-21.4q1.4 0 2.9 0c15.9 0.1 31.1 1 46.7 4.4q1.5 0.3 3.1 0.7c32.9 7.4 64.6 22.4 89.2 45.8 2.3 2.1 4.6 4.2 7 6.2 11.6 10.1 22 24.1 29.7 37.3q0 1 0 2 1 0 2 0 0.3-1 0.7-2c1.8-4 4.2-7.5 6.7-11.1q0.8-1.1 1.6-2.2c4.9-6.8 10.3-12.7 16-18.7q1.9-2.1 3.7-4.3c24.7-28.4 62.7-44 98.3-52.7q1.1-0.3 2.2-0.5c55.8-13.3 117.6-2.4 166.4 27 10.3 6.4 19.6 14.1 28.4 22.5 0.8 0.8 0.8 0.8 1.7 1.6 32.2 30.5 51.7 71.5 60.5 114.7q0.3 1.1 0.5 2.3 0.7 3.7 1.3 7.4 0.3 1.5 0.5 3.1c2 13.3 1.8 26.5 1.7 40q0 4 0 8.1 0 8.7 0 17.4 0 12.6 0 25.2 0 20.5 0 40.9-0.1 19.8-0.1 39.7c0 1.2 0 1.2 0 2.5q0 6.1 0 12.3 0 50.9-0.1 101.8c-22.1 0-44.2 0-67 0 0-12.1 0-12.1 0-24.5q-0.1-38.9-0.2-77.7 0-6.1-0.1-12.1c0-1.2 0-1.2 0-2.4q0-19.5-0.1-38.9 0-20 0-40-0.1-12.3-0.1-24.6 0-8.4 0-16.9-0.1-4.9-0.1-9.7c0-18.1-0.9-35.4-6.1-52.8q-0.4-1.3-0.8-2.6c-10.9-35.8-34.6-66.1-67.6-84-35.5-18.4-78.1-21.1-116.2-9.4-35.9 11.6-63.4 35.9-80.8 69.4-10.4 20.8-16 44.2-16.1 67.4 0 1.7 0 1.7 0 3.4q0 5.5 0 11.1 0 4 0 8-0.1 8.6-0.1 17.1 0 12.5-0.1 24.9 0 20.1-0.1 40.3-0.1 19.5-0.1 39.1c0 1.2 0 1.2 0 2.4q-0.1 6.1-0.1 12.1-0.1 50.2-0.3 100.4c-23.1 0-46.2 0-70 0 0-8.1 0-16.1 0-24.5q-0.1-38.8-0.2-77.7 0-6-0.1-12.1c0-1.2 0-1.2 0-2.4q0-19.4-0.1-38.8 0-20 0-40-0.1-12.3-0.1-24.6 0-8.4 0-16.9-0.1-4.9-0.1-9.7c0-18.1-0.5-36.2-6.2-53.6q-0.3-1.2-0.7-2.4c-11.8-36.5-35.1-66.7-69.3-84.3-18.3-9-38.8-14.4-59.2-15q-1.8-0.1-3.6-0.1c-41-0.7-77.2 12.2-107 40.5q-1.2 1.3-2.4 2.6-1 1-1.9 2c-24.4 25.8-37.2 63.1-37.3 98.2q0 1.7 0 3.4 0 5.5 0 11.1 0 4 0 8-0.1 8.6-0.1 17.1 0 12.5-0.1 24.9 0 20.1-0.1 40.3-0.1 19.5-0.1 39.1 0 1.2 0 2.4-0.1 6.1-0.1 12.1-0.1 50.2-0.3 100.4c-22.1 0-44.2 0-67 0q-0.2-79.1-0.3-158.2 0-9.3 0-18.7 0-1.8 0-3.7 0-30.1-0.1-60.2-0.1-30.9-0.1-61.8 0-19 0-38.1-0.1-13.1-0.1-26.1 0-7.6 0-15.1 0-6.9 0-13.8 0-2.5 0-5c-0.2-20 5.7-37 19.7-51.7 13.3-12.1 29.9-18.6 47.9-18.6z"/>
	<path id="Layer" fill-rule="evenodd" class="s0" d="m-849 3c0.3 23.4 0.7 46.9 1 71 4.3-4.3 8.6-8.6 13-13 13.8-11.4 28.2-21.5 44-30q2-1 3.9-2c30.2-16.6 65.7-25.1 100.1-26q1.5-0.1 3-0.1c61.5-1.4 120.7 23.3 165.2 65.2 9.3 8.8 18 17.9 25.6 28.2q1.8 2.5 3.7 4.9c7.5 10 13.6 20.8 19.5 31.8q0.6 1 1.1 2.1c11.5 21.5 18.2 46 21.9 69.9q0.2 1.2 0.4 2.4c4.9 32.3 1.3 65.4-7.4 96.6q-0.4 1.3-0.7 2.7c-7.7 27.2-21.8 53.2-39.3 75.3q-1.1 1.3-2.1 2.7c-37.5 46.8-89.8 77.4-148.9 87.3q-1 0.2-2.1 0.4c-58.1 9.7-120-7-167.8-40.5-11.8-8.4-22.9-17.7-33.1-27.9-0.3 100-0.7 200-1 303-22.1 0-44.2 0-67 0q-0.1-91.8-0.1-183.6 0-1.4 0-2.7 0-29.6-0.1-59.1 0-14.5 0-29 0-1.4 0-2.9 0-46.7 0-93.4-0.1-48-0.1-96 0-6.8 0-13.6 0-1.3 0-2.7 0-21.4 0-42.9 0-21.6 0-43.2 0-12.8-0.1-25.7 0-8.5 0-17.1 0-4.9 0-9.8c-0.1-25 2.8-45.1 20.7-64 12.6-12.1 29.3-18.3 46.7-18.3zm113 77c-1 0.4-1 0.4-2.1 0.8-43.3 16.2-77.5 49.5-96.9 91.2-18 41.1-18 85.8-2.2 127.6 6 14.5 13.6 28 23.2 40.4q1 1.4 2.1 2.8c27.2 34.7 68.5 58.2 112.4 63.7 17.5 1.8 35.3 1.1 52.5-2.5q1.2-0.2 2.4-0.5c28-6.2 53-19.9 74.6-38.5q0.7-0.6 1.5-1.3c7.3-6.3 13.6-13 19.5-20.7q1.1-1.4 2.2-2.8c26.5-33.9 39-77.7 34-120.6-6-45-29.1-85.6-64.6-114-46-33.6-104.2-45.6-158.6-25.6z"/>
	<path id="Layer" fill-rule="evenodd" class="s1" d="m2779 3c1.3 0.1 1.3 0.1 2.5 0.1 23.2 1.3 45.6 5.1 67.5 12.9 1 0.4 1 0.4 2.1 0.7 29.7 10.4 57.5 26.8 80.1 48.7 2.9 2.7 5.8 5.1 8.8 7.6 0.1-1.7 0.1-1.7 0.3-3.5 1.8-20 8.1-37.4 23.6-51 13.7-10.8 26.7-14.2 44.1-15.5 0 155.4 0 310.9 0 471-22.1 0-44.2 0-67 0-0.3-23.1-0.7-46.2-1-70-3.3 3.3-6.6 6.6-10 10-3.6 3.1-7.3 6.1-11 9q-1.4 1.2-2.9 2.4c-9.4 7.5-19.6 13.6-30.1 19.6q-1 0.6-2 1.2c-51.1 29.7-115.4 35.2-172 20.5-35.5-9.7-67.7-27.3-95-51.7q-0.8-0.7-1.6-1.5c-13.5-11.9-24.8-25-35.4-39.5q-0.7-0.9-1.3-1.8c-35.4-48.3-47.8-111.2-39.2-169.8 6.1-38.1 21.3-75.2 45.5-105.4q1-1.2 1.9-2.5c5.4-6.9 11.1-13.2 17.1-19.5q0.8-0.8 1.5-1.6c7.9-8.3 16.3-15.6 25.5-22.4q0.9-0.6 1.7-1.3c41.4-30.8 94.3-49.4 146.3-46.7zm-108 102q-1.4 1-2.8 2.1c-12.6 9.9-24.1 21.6-33.2 34.9q-0.6 0.9-1.2 1.8c-17.1 25.2-28.8 55.5-29.8 86.2q-0.1 1.8-0.2 3.6c-1.3 44.2 15.5 86 45.3 118.3q3.4 3.6 6.9 7.1 0.9 0.9 1.8 1.9c23.5 24.8 58.7 40.4 92.2 45.1q1 0.1 2 0.3c42 5.3 86.1-6.6 119.8-32.2 6.4-5 12.3-10.5 18.2-16.1 1.3-1.2 1.3-1.2 2.6-2.5 30.3-29.2 47.8-72.1 48.6-113.9 0.3-37.5-11.8-75.2-35.2-104.6q-0.7-0.8-1.3-1.7c-28.3-35.1-68.2-58.6-113.2-64.2-43.2-4.5-86.1 7.4-120.5 33.9z"/>
	<path id="Layer" fill-rule="evenodd" class="s1" d="m1886.6 2.8c3.1-0.1 6.2 0 9.4 0.2 1.3 0.1 1.3 0.1 2.5 0.1 47.9 2.6 93.2 17.8 131.5 46.9q1.4 1.1 2.9 2.2c5.1 4 10 8.3 14.8 12.7 3 2.8 6.2 5.4 9.3 8.1 0.1-1.7 0.1-1.7 0.3-3.5 1.7-19 7-33.8 20.7-47.5 1-1.1 1-1.1 2.1-2.2 12.6-12.1 27.9-15.5 44.9-16.8 0 155.4 0 310.9 0 471-22.1 0-44.2 0-67 0-0.3-23.1-0.7-46.2-1-70-3.6 3.6-7.3 7.3-11 11-3.6 3.1-7.2 6.1-11 9q-0.9 0.7-1.9 1.5c-32.1 24.4-68.4 39.7-108.1 46.5q-1.1 0.2-2.2 0.4c-57.9 9.9-120.1-7.1-167.7-40.4-7.4-5.3-14.3-11-21.1-17q-0.8-0.7-1.6-1.5c-30.5-27.1-53.4-61.8-66.4-100.5q-0.4-1.2-0.9-2.5c-19.3-58.4-13.2-121.6 13.7-176.6 15.4-30.4 37.9-59.2 65.2-79.9q0.8-0.6 1.6-1.3c41.6-31.9 89-47.2 141-49.9zm-98.6 102.2q-1.4 1-2.8 2.1c-36.3 28.5-57.6 70-63.7 115.4-0.2 2.8-0.4 5.6-0.5 8.5q-0.1 1.7-0.1 3.4c-0.6 29.7 6.9 58.6 21.1 84.6q0.5 0.9 1 1.9c12.7 23.1 31.9 43.8 54 58.1q0.9 0.6 1.8 1.2c35.6 23 79.9 33 121.8 24.3 32.1-7.1 60.6-21.6 84.4-44.5q0.7-0.7 1.5-1.4c31.8-29.8 49.9-71.5 51.8-114.9 0.7-27.1-5.3-53.5-17.3-77.7q-0.5-1-1-2c-19.3-39.3-55.2-70.7-96.5-84.9-53.3-17.2-110.9-8.4-155.5 25.9z"/>
	<path id="Layer" class="s0" d="m-855.1-109.1q1.7 0 3.4 0 5.6 0 11.3 0 4 0 8.1 0 8.9 0 17.8 0 13.4 0 26.7 0 22.7-0.1 45.5-0.1 23 0 46 0 1.5 0 3 0 5.9 0 11.8 0 70.2 0 140.3 0 34.9 0 69.9 0 111.9 0 223.9 0 5.4 0 10.7 0 10.8 0 21.5 0 12.6 0 25.1 0 3.6 0 7.2 0 115.6 0 231.2-0.1 83 0 166 0 1.7 0 3.5 0 37.5 0 74.9 0 13.4 0 26.8 0 3.4 0 6.7 0 53.2 0 106.4 0 53.5-0.1 107.1-0.1 7.4 0 14.8 0 1.4 0 2.9 0 23 0 46 0 22.5 0 45.1 0 13.3 0 26.5 0 8.8 0 17.6 0 5 0 10 0 5.3 0 10.7 0c1.5 0 1.5 0 3.1 0 16.5 0.1 30.3 6.1 42 17.6 3.4 3.7 6.2 7.4 8.6 11.8q0.6 1 1.1 2c5.1 9.4 6.1 18.1 6.9 29-558 0-1116.1 0-1691 0 1.5-19.1 5.9-33.1 20-46.5 12.4-10.4 25.2-13.7 40.9-13.6z"/>
	<path id="Layer" class="s1" d="m3717.4 2.9c61.3-1.1 130.2 13.9 178.6 53.1 1.2 1 1.2 1 2.5 2 18.6 15.8 30.6 38.1 34.5 62q0.2 1.1 0.4 2.3c0.8 5.3 0.6 10.2 0.6 15.7-22.1 0-44.2 0-67 0-2-7.9-2-7.9-4-16-9.3-18.9-27.9-29-47-36-62.8-20.8-143.2-23.3-203.6 6.6-15 7.7-26.5 16.8-32.7 33.1-2.9 9.3-2.5 19.2 1.6 28.1 10.9 20.8 32.5 30.4 54 37.4 26.8 8.1 55.1 11.6 83.1 12.1 62.1 1.4 128.3 13.5 177.6 53.7q1.2 1 2.5 2c19.9 16.9 32.7 41.8 35.3 67.7 2.2 28.1-4.2 56-22.7 77.8-2.9 3.3-6 6.4-9.1 9.5-1.3 1.3-1.3 1.3-2.6 2.6-45.9 44.3-123 57.3-184.4 56.4-63.1-2.1-133.5-17.6-178.7-64.4-18.3-19.5-26.3-44.3-26.3-70.6 22.1 0 44.2 0 67 0 1.3 5.3 2.6 10.6 4 16 9.6 19.3 29.1 29.1 48.7 35.9 21.4 7.1 43.8 11.3 66.3 13.1q2 0.2 4 0.3c48 3.5 110.2-0.9 149.4-32.1 9.3-8 15.5-18 16.8-30.3 0.5-11.8-4.3-22.3-11.6-31.3-29.2-31.3-85.9-36.5-125.8-37.8q-5.2-0.2-10.4-0.3c-62.4-1.4-135.7-15.4-180.9-62-20.7-22.4-28.5-50-27.6-79.8 1.1-22 9.6-43.2 24.1-59.7q1-1.2 2-2.4c37.2-43.4 103.4-59.1 157.8-63.4 7.9-0.6 15.8-1 23.6-1.3z"/>
	<path id="Layer" fill-rule="evenodd" class="s0" d="m-12.8 64.5c2.9 2.7 2.9 2.7 4.3 4.1q2.4 2.2 4.7 4.4 1.6 1.4 3.1 2.9 1.4 1.3 2.8 2.6c1.9 2.5 1.9 2.5 2 5-1.5 3.4-3.5 5.3-6.2 7.8-3.9 3.7-7.5 7.5-11.1 11.6-3 3.5-6.3 6.9-9.5 10.3-4.8 5.1-9.6 10.2-14.4 15.4q-6.6 7.2-13.4 14.4-7.5 8-15 16.1-5.7 6.2-11.5 12.4-7.3 7.8-14.5 15.6-5.7 6.2-11.6 12.5-7.6 8.2-15.2 16.4-4.3 4.8-8.7 9.5-8.5 9.2-17 18.5-9.2 10.1-18.5 20.1-7.8 8.5-15.5 16.9-9.2 10.1-18.5 20.1-5 5.5-10 10.9-9.5 10.3-19 20.6-9.4 10.2-18.7 20.3-3 3.3-6 6.5-0.8 0.9-1.6 1.8-1.5 1.6-3.1 3.3c-6 6.1-6 6.1-10.1 13.5q1 0.4 2 0.7c3.6 1.6 6.9 3.5 10.3 5.5 35.1 20 76 27.2 115.7 18.8q1.2-0.2 2.4-0.5c32.8-7.2 67.7-25.6 88.6-52.5 3.9 0.5 5.7 1.2 8.3 4.1 2.5 2.6 5 5.1 7.7 7.4 3.2 2.8 6.2 5.7 9.2 8.7 1.9 1.9 3.8 3.6 5.8 5.3 3.2 2.8 6.2 5.7 9.2 8.7 3.1 3.1 6.5 5.9 9.8 8.8-0.3 5.5-3.6 8.2-7.4 11.7q-0.9 1-1.9 1.9c-5.3 5.2-10.9 9.8-16.7 14.4q-1.2 1-2.4 2c-11.8 9.8-25 17.9-38.6 25q-1.1 0.6-2.3 1.2c-22 11.4-45.3 18.7-69.7 22.8-1.1 0.2-1.1 0.2-2.2 0.4-56.9 9.8-120-6.5-166.9-39.5-19.1-13.8-37.4-30.1-51.9-48.9q-0.6-0.8-1.3-1.6c-38-49.2-54.4-110.3-47.9-172 6.1-47.9 27-94.7 60.6-129.7 2.1-2.2 4.2-4.5 6.2-6.9 36.4-41.9 96.1-66.3 150.4-70.3 64.1-4.2 127.7 17.6 175.2 61zm-278.9 57.9c-30.7 30.9-47.5 73-47.7 116.4 0.2 30.7 8.7 61.3 25.4 87.2 4.1-1.6 6.5-4.5 9.4-7.7q1.6-1.8 3.2-3.5 0.8-0.9 1.7-1.9c2.9-3.2 5.8-6.3 8.8-9.5q6.2-6.6 12.4-13.4 7.1-7.7 14.2-15.4 8.7-9.2 17.3-18.6 10.4-11.3 20.9-22.5 6.6-7.2 13.3-14.4c3.8-4.2 7.7-8.4 11.6-12.5q5.4-5.8 10.7-11.6 7.1-7.7 14.2-15.4 8.7-9.2 17.3-18.6 10.4-11.3 20.9-22.5 5.3-5.7 10.6-11.5 6.2-6.8 12.4-13.4 0.9-1 1.8-1.9 4.4-4.7 8.8-9.4 1.7-1.7 3.3-3.5 0.8-0.8 1.6-1.6c2.4-2.6 4.2-4.6 4.6-8.2-67.4-34-143.4-19.1-196.7 33.4z"/>
	<path id="Layer" class="s1" d="m3047 3c22.4 0 36.3 2.2 52.8 17.3 9.3 10 12.2 21.7 15.2 34.7q0.8-0.8 1.6-1.5c12.3-11.6 26.4-20.7 41.4-28.5q1.7-0.9 3.5-1.8c15-7.4 31.1-12.5 47.4-16.1q1.3-0.3 2.6-0.6c15.7-3.2 31.2-3.9 47.1-3.8q1.5 0 3 0c14.3 0 28.3 0.4 42.4 3.3 1.5 0.3 1.5 0.3 3 0.6 45.5 9.3 87 32.8 116 69.4 1.2 1.5 1.2 1.5 2.5 3.1 10 12.5 17.7 26.3 24.5 40.9q0.5 1.1 1 2.2c7.5 16.4 12.7 33.5 16.3 51.2q0.2 1 0.5 2.1c3.3 17.5 3.5 34.9 3.4 52.6q0 4 0 8.1 0 8.6 0 17.3 0 12.5 0 24.9 0 20.3 0 40.6-0.1 19.7-0.1 39.4 0 1.2 0 2.4 0 6.1 0 12.2 0 50.5-0.1 101c-22.4 0-44.9 0-68 0 0-8.2 0-16.3 0-24.7q-0.1-39.3-0.2-78.5 0-6.1 0-12.2 0-1.2 0-2.5-0.1-19.6-0.1-39.2 0-20.2-0.1-40.4 0-12.4 0-24.8 0-8.6 0-17.1-0.1-4.9 0-9.9c0-43-12.4-83.2-42.9-114.5-26.8-26.5-63.6-37.9-100.7-38.5-40.2 0.7-76.4 14-104.9 42.7-30.8 32.3-39.6 75.3-39.5 118.5q0 3.9-0.1 7.9 0 8.5 0 16.9 0 12.3-0.1 24.5 0 19.9-0.1 39.8 0 19.3 0 38.6 0 1.2 0 2.4-0.1 6-0.1 12-0.1 49.5-0.2 99c-22.1 0-44.2 0-67 0 0-155.4 0-310.9 0-471z"/>
	<path id="Layer" class="s1" d="m2310-229c0 76.6 0 153.1 0 232 27.1 0 54.1 0 82 0 0 22.1 0 44.2 0 67-27.1 0-54.1 0-82 0 0.1 32.4 0.1 32.4 0.3 64.9q0.1 19.9 0.2 39.7 0.1 14.5 0.1 29 0.1 7.7 0.1 15.3c-0.2 37.8-0.2 37.8 2.6 75.4q0.2 1.6 0.4 3.3c4.2 33 13.7 69 40.3 91.4 11.6 8.5 24.1 14.3 38 18-0.6 7.2-2.4 13.8-4.3 20.7q-0.5 1.8-1 3.7-1.3 4.8-2.7 9.5-1 3.9-2.1 7.8-1.3 4.7-2.6 9.4c-0.4 1.7-0.4 1.7-0.9 3.5q-0.5 1.6-0.9 3.3c-0.4 1.4-0.4 1.4-0.8 2.8-0.7 2.3-0.7 2.3-1.7 4.3-35-5.5-66.8-24.7-88.2-53-42.4-59.4-44-134.4-43.9-204.6q0-7.6 0-15.3 0-14.4 0-28.8 0-19.5 0.1-39 0-30.6 0-61.3c-26.1 0-52.1 0-79 0 0-22.1 0-44.2 0-67 26.1 0 52.1 0 79 0 0-12.1-0.1-24.2-0.1-36.6q0-11.5 0-23-0.1-18.3-0.1-36.6-0.1-13.3-0.1-26.6 0-7 0-14 0-6.7 0-13.3 0-2.4-0.1-4.8c-0.1-22.7 4.6-41.8 20.5-58.7 12.9-12.5 29-18.4 46.9-18.4z"/>
	<path id="Layer" class="s2" d="m370.8 124.7q1.4 0 2.8-0.1c4.9 0 8.5 0 12.4 3.4 2.7 8-1 16.3-4.6 23.6-1.3 2.6-2.3 4.3-4.4 6.4-2.3 0.2-2.3 0.2-5.3 0.1q-1.6-0.1-3.2-0.1-1.7-0.1-3.5-0.1c-11.3-0.2-21.2 1.1-32 4.1q-4 1-8 2c0.3 0.8 0.3 0.8 0.6 1.7q1.4 3.8 2.8 7.5 0.5 1.4 1 2.7 0.5 1.3 1 2.6c0.4 1.1 0.4 1.1 0.8 2.3 4.2 12.2 3 27.6-2.2 39.2-2.3 4.6-5.1 8.7-8.1 12.9-9.1 12.8-16.4 25.7-19.9 41.1-0.3 0.9-0.3 0.9-0.5 1.9-2.1 8.1-2.2 16.5-2.5 24.8-1.2 26.1-8.3 51.4-26 71.3q-1 1.2-2 2.5c-15 17.5-34.9 27.1-57 32.5q-1.2 0.3-2.4 0.6c-6.4 1.4-12.7 1.7-19.2 1.7-1.6 0-1.6 0-3.2 0-24.2-0.3-46.6-8.8-65.2-24.3-1.3-1.1-1.3-1.1-2.6-2.2-19.1-16.4-32.8-41.7-35.4-66.8-0.1-4.1-0.1-8.2-0.1-12.3q0-1.6 0-3.3c0-19.2 4.9-34.7 14.1-51.4q0.8-1.5 1.6-3c13-21.8 35.9-39.1 60.5-45.5q4.2-1 8.5-2c26.1-5.8 47.9-20.1 64.9-40.7 8.9-10.4 21.4-16.8 35-18q3.9-0.2 7.9-0.2c1.4 0 1.4 0 2.8 0 8.6 0.2 15.2 2.2 22.6 6.6 3.6 2 5.1 2.3 9.2 1.8 2.2-1.5 4.1-2.8 6.1-4.6 15.6-12.5 32.7-18.8 52.7-18.7z"/>
	<path id="Layer" class="s0" d="m511 3c19.4 0 34.3 0.9 49 14q1 0.8 2.1 1.7c10.4 9.1 14.9 23 16.9 36.3q1.2-1.1 2.5-2.3c8.4-7.4 17-13.9 26.5-19.7 0.9-0.6 0.9-0.6 1.9-1.2 31.6-19.2 68.8-29.2 105.7-29.2q3.2 0 6.4 0c15.1-0.2 27.5 4.3 38.8 14.6 9.8 10.5 14.6 24.2 14.4 38.4-0.6 8-3 15.1-6.2 22.4q-1.5-0.4-3.1-0.8c-39.2-10-83.5-6.8-118.8 14.1-32.6 20.2-54.7 52.1-63.7 89.3-2.9 12.9-4.5 25.5-4.6 38.7q0 1.6 0 3.3 0 5.5 0 11 0 3.9 0 7.8-0.1 8.5-0.1 16.9 0 12.2-0.1 24.5 0 19.8-0.1 39.6-0.1 19.3-0.1 38.5 0 1.2 0 2.4-0.1 6-0.1 11.9-0.1 49.4-0.3 98.8c-22.1 0-44.2 0-67 0 0-155.4 0-310.9 0-471z"/>
	<path id="Layer" class="s1" d="m2431 3c20.9 1.6 36.5 7.1 51.2 22.3 12.9 15.1 16.3 31.6 16.2 50.9q0 2.6 0 5.2 0 7-0.1 14.1 0 7.6 0 15.2 0 13.2 0 26.4 0 19.1 0 38.2 0 31-0.1 61.9 0 30.1 0 60.2 0 1.8 0 3.7 0 9.3 0 18.6-0.1 77.2-0.2 154.3c-22.1 0-44.2 0-67 0 0-155.4 0-310.9 0-471z"/>
	<path id="Layer" class="s1" d="m2498-229c0 40.6 0 81.2 0 123-22.1 0-44.2 0-67 0 0-10-0.1-20-0.1-30.3 0-3.1-0.1-6.2-0.1-9.4q0-3.8 0-7.6 0-1.9 0-3.8c0-17.7 3.8-32.5 14.2-46.9q0.8-1.1 1.5-2.1c12.4-15.5 32.3-22.9 51.5-22.9z"/>
</svg>